<svg width="251" height="251" viewBox="0 0 251 251" fill="none" xmlns="http://www.w3.org/2000/svg">
<g filter="url(#filter0_d_3_4)">
<path d="M118.571 0.189651C77.4126 2.61964 40.526 25.4579 20.0608 61.1675C5.49981 86.5686 0.620821 116.621 6.37309 145.306C13.3024 179.763 34.6788 209.454 65.1867 226.92C79.8616 235.33 95.9224 240.494 112.97 242.297C138.068 244.974 163.792 239.545 185.813 226.92C216.321 209.454 237.698 179.763 244.627 145.306C250.379 116.621 245.5 86.5686 230.939 61.1675C213.455 30.6596 183.782 9.28317 149.325 2.35387C139.548 0.398483 128.348 -0.398865 118.571 0.189651ZM118.476 19.0601V27.698H120.469H122.463V33.4883V39.2785H120.469H118.476V42.316V45.3535H120.469H122.463V55.5101V65.6668H120.469H118.476V68.7043V71.7418H120.469H122.463V81.8984V92.055H120.469H118.476V95.0925V98.1301H120.469H122.463V108.287V118.443H112.306H102.149V116.45V114.457H99.1118H96.0743V116.45V118.443H85.9176H75.761V116.45V114.457H72.7235H69.686V116.45V118.443H59.5293H49.3727V116.45V114.457H46.3352H43.2977V116.45V118.443H37.5075H31.7172V116.45V114.457H23.0604H14.4035L14.5364 113.166C16.1121 96.972 19.4913 84.803 26.1168 71.5329C40.9816 41.8224 68.6418 20.2372 101.219 12.9282C105.832 11.884 114.755 10.5551 117.963 10.4412L118.476 10.4222V19.0601ZM136.587 10.8019C156.027 12.7953 174.119 19.5917 189.952 30.8304C209.335 44.5941 223.915 64.4138 231.262 87.0052C233.958 95.2634 235.477 102.895 236.464 113.166L236.597 114.457H227.94H219.283V116.45V118.443H213.493H207.702V116.45V114.457H204.665H201.627V116.45V118.443H191.471H181.314V116.45V114.457H178.277H175.239V116.45V118.443H165.082H154.926V116.45V114.457H151.888H148.851V116.45V118.443H138.694H128.538V108.287V98.1301H130.531H132.524V95.0925V92.055H130.531H128.538V81.8984V71.7418H130.531H132.524V68.7043V65.6668H130.531H128.538V55.5101V45.3535H130.531H132.524V42.316V39.2785H130.531H128.538V33.4883V27.698H130.531H132.524V19.0601C132.524 13.3079 132.581 10.4222 132.714 10.4222C132.828 10.4222 134.556 10.5931 136.587 10.8019ZM43.2977 126.512V128.505H46.3352H49.3727V126.512V124.518H59.5293H69.686V126.512V128.505H72.7235H75.761V126.512V124.518H85.9176H96.0743V126.512V128.505H99.1118H102.149V126.512V124.518H112.306H122.463V134.675V144.832H120.469H118.476V147.869V150.907H120.469H122.463V161.063V171.22H120.469H118.476V174.257V177.295H120.469H122.463V187.452V197.608H120.469H118.476V200.646V203.683H120.469H122.463V209.473V215.264H120.469H118.476V223.902C118.476 229.654 118.419 232.539 118.286 232.539C118.172 232.539 116.444 232.369 114.413 232.16C94.9732 230.166 76.8811 223.37 61.0481 212.131C40.1843 197.323 25.0727 175.719 18.2573 150.983C16.4348 144.395 15.3527 138.244 14.5364 129.777L14.4035 128.505H23.0604H31.7172V126.512V124.518H37.5075H43.2977V126.512ZM148.851 126.512V128.505H151.888H154.926V126.512V124.518H165.082H175.239V126.512V128.505H178.277H181.314V126.512V124.518H191.471H201.627V126.512V128.505H204.665H207.702V126.512V124.518H213.493H219.283V126.512V128.505H227.94H236.597L236.464 129.777C234.888 145.99 231.509 158.159 224.883 171.429C209.05 203.095 178.922 225.287 143.744 231.192C140.991 231.666 133.758 232.539 132.714 232.539C132.581 232.539 132.524 229.654 132.524 223.902V215.264H130.531H128.538V209.473V203.683H130.531H132.524V200.646V197.608H130.531H128.538V187.452V177.295H130.531H132.524V174.257V171.22H130.531H128.538V161.063V150.907H130.531H132.524V147.869V144.832H130.531H128.538V134.675V124.518H138.694H148.851V126.512Z" fill="#2A32C5"/>
<path d="M118.571 0.189651C77.4126 2.61964 40.526 25.4579 20.0608 61.1675C5.49981 86.5686 0.620821 116.621 6.37309 145.306C13.3024 179.763 34.6788 209.454 65.1867 226.92C79.8616 235.33 95.9224 240.494 112.97 242.297C138.068 244.974 163.792 239.545 185.813 226.92C216.321 209.454 237.698 179.763 244.627 145.306C250.379 116.621 245.5 86.5686 230.939 61.1675C213.455 30.6596 183.782 9.28317 149.325 2.35387C139.548 0.398483 128.348 -0.398865 118.571 0.189651ZM118.476 19.0601V27.698H120.469H122.463V33.4883V39.2785H120.469H118.476V42.316V45.3535H120.469H122.463V55.5101V65.6668H120.469H118.476V68.7043V71.7418H120.469H122.463V81.8984V92.055H120.469H118.476V95.0925V98.1301H120.469H122.463V108.287V118.443H112.306H102.149V116.45V114.457H99.1118H96.0743V116.45V118.443H85.9176H75.761V116.45V114.457H72.7235H69.686V116.45V118.443H59.5293H49.3727V116.45V114.457H46.3352H43.2977V116.45V118.443H37.5075H31.7172V116.45V114.457H23.0604H14.4035L14.5364 113.166C16.1121 96.972 19.4913 84.803 26.1168 71.5329C40.9816 41.8224 68.6418 20.2372 101.219 12.9282C105.832 11.884 114.755 10.5551 117.963 10.4412L118.476 10.4222V19.0601ZM136.587 10.8019C156.027 12.7953 174.119 19.5917 189.952 30.8304C209.335 44.5941 223.915 64.4138 231.262 87.0052C233.958 95.2634 235.477 102.895 236.464 113.166L236.597 114.457H227.94H219.283V116.45V118.443H213.493H207.702V116.45V114.457H204.665H201.627V116.45V118.443H191.471H181.314V116.45V114.457H178.277H175.239V116.45V118.443H165.082H154.926V116.45V114.457H151.888H148.851V116.45V118.443H138.694H128.538V108.287V98.1301H130.531H132.524V95.0925V92.055H130.531H128.538V81.8984V71.7418H130.531H132.524V68.7043V65.6668H130.531H128.538V55.5101V45.3535H130.531H132.524V42.316V39.2785H130.531H128.538V33.4883V27.698H130.531H132.524V19.0601C132.524 13.3079 132.581 10.4222 132.714 10.4222C132.828 10.4222 134.556 10.5931 136.587 10.8019ZM43.2977 126.512V128.505H46.3352H49.3727V126.512V124.518H59.5293H69.686V126.512V128.505H72.7235H75.761V126.512V124.518H85.9176H96.0743V126.512V128.505H99.1118H102.149V126.512V124.518H112.306H122.463V134.675V144.832H120.469H118.476V147.869V150.907H120.469H122.463V161.063V171.22H120.469H118.476V174.257V177.295H120.469H122.463V187.452V197.608H120.469H118.476V200.646V203.683H120.469H122.463V209.473V215.264H120.469H118.476V223.902C118.476 229.654 118.419 232.539 118.286 232.539C118.172 232.539 116.444 232.369 114.413 232.16C94.9732 230.166 76.8811 223.37 61.0481 212.131C40.1843 197.323 25.0727 175.719 18.2573 150.983C16.4348 144.395 15.3527 138.244 14.5364 129.777L14.4035 128.505H23.0604H31.7172V126.512V124.518H37.5075H43.2977V126.512ZM148.851 126.512V128.505H151.888H154.926V126.512V124.518H165.082H175.239V126.512V128.505H178.277H181.314V126.512V124.518H191.471H201.627V126.512V128.505H204.665H207.702V126.512V124.518H213.493H219.283V126.512V128.505H227.94H236.597L236.464 129.777C234.888 145.99 231.509 158.159 224.883 171.429C209.05 203.095 178.922 225.287 143.744 231.192C140.991 231.666 133.758 232.539 132.714 232.539C132.581 232.539 132.524 229.654 132.524 223.902V215.264H130.531H128.538V209.473V203.683H130.531H132.524V200.646V197.608H130.531H128.538V187.452V177.295H130.531H132.524V174.257V171.22H130.531H128.538V161.063V150.907H130.531H132.524V147.869V144.832H130.531H128.538V134.675V124.518H138.694H148.851V126.512Z" fill="#AA1CCC" fill-opacity="0.2"/>
</g>
<defs>
<filter id="filter0_d_3_4" x="0.0196533" y="0" width="250.961" height="250.964" filterUnits="userSpaceOnUse" color-interpolation-filters="sRGB">
<feFlood flood-opacity="0" result="BackgroundImageFix"/>
<feColorMatrix in="SourceAlpha" type="matrix" values="0 0 0 0 0 0 0 0 0 0 0 0 0 0 0 0 0 0 127 0" result="hardAlpha"/>
<feOffset dy="4"/>
<feGaussianBlur stdDeviation="2"/>
<feComposite in2="hardAlpha" operator="out"/>
<feColorMatrix type="matrix" values="0 0 0 0 1 0 0 0 0 0.0424154 0 0 0 0 0.296689 0 0 0 0.3 0"/>
<feBlend mode="normal" in2="BackgroundImageFix" result="effect1_dropShadow_3_4"/>
<feBlend mode="normal" in="SourceGraphic" in2="effect1_dropShadow_3_4" result="shape"/>
</filter>
</defs>
</svg>
