<svg width="300" height="300" viewBox="0 0 300 300" fill="none" xmlns="http://www.w3.org/2000/svg">
<path d="M141.444 0.234213C90.6232 3.2347 45.0768 31.4346 19.8071 75.5276C1.82764 106.892 -4.19677 144 2.90594 179.419C11.462 221.965 37.8569 258.628 75.527 280.193C93.6472 290.578 113.478 296.954 134.529 299.181C165.518 302.486 197.281 295.782 224.473 280.193C262.143 258.628 288.538 221.965 297.094 179.419C304.197 144 298.172 106.892 280.193 75.5276C258.603 37.8575 221.965 11.4626 179.419 2.90652C167.347 0.492067 153.516 -0.492467 141.444 0.234213ZM141.327 23.5349V34.2006H143.788H146.249V41.3502V48.4998H143.788H141.327V52.2504V56.001H143.788H146.249V68.5421V81.0832H143.788H141.327V84.8338V88.5844H143.788H146.249V101.126V113.667H143.788H141.327V117.417V121.168H143.788H146.249V133.709V146.25H133.708H121.167V143.789V141.327H117.417H113.666V143.789V146.25H101.125H88.5838V143.789V141.327H84.8332H81.0826V143.789V146.25H68.5415H56.0005V143.789V141.327H52.2498H48.4992V143.789V146.25H41.3497H34.2001V143.789V141.327H23.5108H12.8216L12.9857 139.733C14.9313 119.738 19.1039 104.712 27.2849 88.3266C45.6394 51.641 79.7934 24.9882 120.019 15.9633C125.715 14.674 136.732 13.0332 140.694 12.8925L141.327 12.8691V23.5349ZM163.69 13.3379C187.694 15.7992 210.033 24.1912 229.583 38.0684C253.517 55.0634 271.52 79.5361 280.591 107.431C283.92 117.628 285.795 127.052 287.014 139.733L287.178 141.327H276.489H265.8V143.789V146.25H258.65H251.501V143.789V141.327H247.75H244V143.789V146.25H231.458H218.917V143.789V141.327H215.167H211.416V143.789V146.25H198.875H186.334V143.789V141.327H182.583H178.833V143.789V146.25H166.292H153.751V133.709V121.168H156.212H158.673V117.417V113.667H156.212H153.751V101.126V88.5844H156.212H158.673V84.8338V81.0832H156.212H153.751V68.5421V56.001H156.212H158.673V52.2504V48.4998H156.212H153.751V41.3502V34.2006H156.212H158.673V23.5349C158.673 16.4321 158.744 12.8691 158.908 12.8691C159.048 12.8691 161.181 13.08 163.69 13.3379ZM48.4992 156.213V158.674H52.2498H56.0005V156.213V153.751H68.5415H81.0826V156.213V158.674H84.8332H88.5838V156.213V153.751H101.125H113.666V156.213V158.674H117.417H121.167V156.213V153.751H133.708H146.249V166.292V178.833H143.788H141.327V182.584V186.335H143.788H146.249V198.876V211.417H143.788H141.327V215.167V218.918H143.788H146.249V231.459V244H143.788H141.327V247.751V251.501H143.788H146.249V258.651V265.801H143.788H141.327V276.466C141.327 283.569 141.256 287.132 141.092 287.132C140.952 287.132 138.819 286.921 136.31 286.663C112.306 284.202 89.9669 275.81 70.4168 261.933C44.6549 243.649 25.9956 216.972 17.5802 186.428C15.3298 178.294 13.9937 170.699 12.9857 160.244L12.8216 158.674H23.5108H34.2001V156.213V153.751H41.3497H48.4992V156.213ZM178.833 156.213V158.674H182.583H186.334V156.213V153.751H198.875H211.416V156.213V158.674H215.167H218.917V156.213V153.751H231.458H244V156.213V158.674H247.75H251.501V156.213V153.751H258.65H265.8V156.213V158.674H276.489H287.178L287.014 160.244C285.069 180.263 280.896 195.289 272.715 211.675C253.165 250.775 215.964 278.178 172.527 285.468C169.128 286.054 160.197 287.132 158.908 287.132C158.744 287.132 158.673 283.569 158.673 276.466V265.801H156.212H153.751V258.651V251.501H156.212H158.673V247.751V244H156.212H153.751V231.459V218.918H156.212H158.673V215.167V211.417H156.212H153.751V198.876V186.335H156.212H158.673V182.584V178.833H156.212H153.751V166.292V153.751H166.292H178.833V156.213Z" fill="white"/>
</svg>
