<svg width="251" height="251" viewBox="0 0 251 251" fill="none" xmlns="http://www.w3.org/2000/svg">
<g filter="url(#filter0_d_3_4)">
<path d="M118.551 0.189651C77.393 2.61964 40.5063 25.4579 20.0412 61.1675C5.48015 86.5686 0.601168 116.621 6.35343 145.306C13.2827 179.763 34.6591 209.454 65.167 226.92C79.8419 235.33 95.9027 240.494 112.951 242.297C138.048 244.974 163.772 239.545 185.794 226.92C216.302 209.454 237.678 179.763 244.607 145.306C250.36 116.621 245.481 86.5686 230.92 61.1675C213.435 30.6596 183.762 9.28317 149.306 2.35387C139.529 0.398483 128.328 -0.398865 118.551 0.189651ZM118.456 19.0601V27.698H120.45H122.443V33.4883V39.2785H120.45H118.456V42.316V45.3535H120.45H122.443V55.5101V65.6668H120.45H118.456V68.7043V71.7418H120.45H122.443V81.8984V92.055H120.45H118.456V95.0925V98.1301H120.45H122.443V108.287V118.443H112.286H102.13V116.45V114.457H99.0921H96.0546V116.45V118.443H85.898H75.7413V116.45V114.457H72.7038H69.6663V116.45V118.443H59.5097H49.353V116.45V114.457H46.3155H43.278V116.45V118.443H37.4878H31.6976V116.45V114.457H23.0407H14.3838L14.5167 113.166C16.0924 96.972 19.4716 84.803 26.0972 71.5329C40.962 41.8224 68.6222 20.2372 101.199 12.9282C105.813 11.884 114.735 10.5551 117.944 10.4412L118.456 10.4222V19.0601ZM136.567 10.8019C156.007 12.7953 174.099 19.5917 189.932 30.8304C209.315 44.5941 223.895 64.4138 231.242 87.0052C233.938 95.2634 235.457 102.895 236.444 113.166L236.577 114.457H227.92H219.263V116.45V118.443H213.473H207.683V116.45V114.457H204.645H201.608V116.45V118.443H191.451H181.294V116.45V114.457H178.257H175.219V116.45V118.443H165.063H154.906V116.45V114.457H151.869H148.831V116.45V118.443H138.675H128.518V108.287V98.1301H130.511H132.505V95.0925V92.055H130.511H128.518V81.8984V71.7418H130.511H132.505V68.7043V65.6668H130.511H128.518V55.5101V45.3535H130.511H132.505V42.316V39.2785H130.511H128.518V33.4883V27.698H130.511H132.505V19.0601C132.505 13.3079 132.562 10.4222 132.694 10.4222C132.808 10.4222 134.536 10.5931 136.567 10.8019ZM43.278 126.512V128.505H46.3155H49.353V126.512V124.518H59.5097H69.6663V126.512V128.505H72.7038H75.7413V126.512V124.518H85.898H96.0546V126.512V128.505H99.0921H102.13V126.512V124.518H112.286H122.443V134.675V144.832H120.45H118.456V147.869V150.907H120.45H122.443V161.063V171.22H120.45H118.456V174.257V177.295H120.45H122.443V187.452V197.608H120.45H118.456V200.646V203.683H120.45H122.443V209.473V215.264H120.45H118.456V223.902C118.456 229.654 118.399 232.539 118.266 232.539C118.152 232.539 116.425 232.369 114.394 232.16C94.9535 230.166 76.8614 223.37 61.0284 212.131C40.1646 197.323 25.053 175.719 18.2377 150.983C16.4152 144.395 15.333 138.244 14.5167 129.777L14.3838 128.505H23.0407H31.6976V126.512V124.518H37.4878H43.278V126.512ZM148.831 126.512V128.505H151.869H154.906V126.512V124.518H165.063H175.219V126.512V128.505H178.257H181.294V126.512V124.518H191.451H201.608V126.512V128.505H204.645H207.683V126.512V124.518H213.473H219.263V126.512V128.505H227.92H236.577L236.444 129.777C234.868 145.99 231.489 158.159 224.864 171.429C209.031 203.095 178.902 225.287 143.724 231.192C140.972 231.666 133.739 232.539 132.694 232.539C132.562 232.539 132.505 229.654 132.505 223.902V215.264H130.511H128.518V209.473V203.683H130.511H132.505V200.646V197.608H130.511H128.518V187.452V177.295H130.511H132.505V174.257V171.22H130.511H128.518V161.063V150.907H130.511H132.505V147.869V144.832H130.511H128.518V134.675V124.518H138.675H148.831V126.512Z" fill="#2A32C5"/>
<path d="M118.551 0.189651C77.393 2.61964 40.5063 25.4579 20.0412 61.1675C5.48015 86.5686 0.601168 116.621 6.35343 145.306C13.2827 179.763 34.6591 209.454 65.167 226.92C79.8419 235.33 95.9027 240.494 112.951 242.297C138.048 244.974 163.772 239.545 185.794 226.92C216.302 209.454 237.678 179.763 244.607 145.306C250.36 116.621 245.481 86.5686 230.92 61.1675C213.435 30.6596 183.762 9.28317 149.306 2.35387C139.529 0.398483 128.328 -0.398865 118.551 0.189651ZM118.456 19.0601V27.698H120.45H122.443V33.4883V39.2785H120.45H118.456V42.316V45.3535H120.45H122.443V55.5101V65.6668H120.45H118.456V68.7043V71.7418H120.45H122.443V81.8984V92.055H120.45H118.456V95.0925V98.1301H120.45H122.443V108.287V118.443H112.286H102.13V116.45V114.457H99.0921H96.0546V116.45V118.443H85.898H75.7413V116.45V114.457H72.7038H69.6663V116.45V118.443H59.5097H49.353V116.45V114.457H46.3155H43.278V116.45V118.443H37.4878H31.6976V116.45V114.457H23.0407H14.3838L14.5167 113.166C16.0924 96.972 19.4716 84.803 26.0972 71.5329C40.962 41.8224 68.6222 20.2372 101.199 12.9282C105.813 11.884 114.735 10.5551 117.944 10.4412L118.456 10.4222V19.0601ZM136.567 10.8019C156.007 12.7953 174.099 19.5917 189.932 30.8304C209.315 44.5941 223.895 64.4138 231.242 87.0052C233.938 95.2634 235.457 102.895 236.444 113.166L236.577 114.457H227.92H219.263V116.45V118.443H213.473H207.683V116.45V114.457H204.645H201.608V116.45V118.443H191.451H181.294V116.45V114.457H178.257H175.219V116.45V118.443H165.063H154.906V116.45V114.457H151.869H148.831V116.45V118.443H138.675H128.518V108.287V98.1301H130.511H132.505V95.0925V92.055H130.511H128.518V81.8984V71.7418H130.511H132.505V68.7043V65.6668H130.511H128.518V55.5101V45.3535H130.511H132.505V42.316V39.2785H130.511H128.518V33.4883V27.698H130.511H132.505V19.0601C132.505 13.3079 132.562 10.4222 132.694 10.4222C132.808 10.4222 134.536 10.5931 136.567 10.8019ZM43.278 126.512V128.505H46.3155H49.353V126.512V124.518H59.5097H69.6663V126.512V128.505H72.7038H75.7413V126.512V124.518H85.898H96.0546V126.512V128.505H99.0921H102.13V126.512V124.518H112.286H122.443V134.675V144.832H120.45H118.456V147.869V150.907H120.45H122.443V161.063V171.22H120.45H118.456V174.257V177.295H120.45H122.443V187.452V197.608H120.45H118.456V200.646V203.683H120.45H122.443V209.473V215.264H120.45H118.456V223.902C118.456 229.654 118.399 232.539 118.266 232.539C118.152 232.539 116.425 232.369 114.394 232.16C94.9535 230.166 76.8614 223.37 61.0284 212.131C40.1646 197.323 25.053 175.719 18.2377 150.983C16.4152 144.395 15.333 138.244 14.5167 129.777L14.3838 128.505H23.0407H31.6976V126.512V124.518H37.4878H43.278V126.512ZM148.831 126.512V128.505H151.869H154.906V126.512V124.518H165.063H175.219V126.512V128.505H178.257H181.294V126.512V124.518H191.451H201.608V126.512V128.505H204.645H207.683V126.512V124.518H213.473H219.263V126.512V128.505H227.92H236.577L236.444 129.777C234.868 145.99 231.489 158.159 224.864 171.429C209.031 203.095 178.902 225.287 143.724 231.192C140.972 231.666 133.739 232.539 132.694 232.539C132.562 232.539 132.505 229.654 132.505 223.902V215.264H130.511H128.518V209.473V203.683H130.511H132.505V200.646V197.608H130.511H128.518V187.452V177.295H130.511H132.505V174.257V171.22H130.511H128.518V161.063V150.907H130.511H132.505V147.869V144.832H130.511H128.518V134.675V124.518H138.675H148.831V126.512Z" fill="#AA1CCC" fill-opacity="0.2"/>
</g>
<defs>
<filter id="filter0_d_3_4" x="0" y="0" width="250.961" height="250.964" filterUnits="userSpaceOnUse" color-interpolation-filters="sRGB">
<feFlood flood-opacity="0" result="BackgroundImageFix"/>
<feColorMatrix in="SourceAlpha" type="matrix" values="0 0 0 0 0 0 0 0 0 0 0 0 0 0 0 0 0 0 127 0" result="hardAlpha"/>
<feOffset dy="4"/>
<feGaussianBlur stdDeviation="2"/>
<feComposite in2="hardAlpha" operator="out"/>
<feColorMatrix type="matrix" values="0 0 0 0 1 0 0 0 0 0.0424154 0 0 0 0 0.296689 0 0 0 0.3 0"/>
<feBlend mode="normal" in2="BackgroundImageFix" result="effect1_dropShadow_3_4"/>
<feBlend mode="normal" in="SourceGraphic" in2="effect1_dropShadow_3_4" result="shape"/>
</filter>
</defs>
</svg>
