<svg width="306" height="300" viewBox="0 0 306 300" fill="none" xmlns="http://www.w3.org/2000/svg">
<path d="M147.444 0.234222C96.6232 3.23471 51.0768 31.4346 25.8071 75.5276C7.82764 106.892 1.80323 144 8.90594 179.419C17.462 221.965 43.8569 258.628 81.527 280.193C99.6472 290.578 119.478 296.954 140.529 299.181C171.518 302.486 203.281 295.782 230.473 280.193C268.143 258.628 294.538 221.965 303.094 179.419C310.197 144 304.172 106.892 286.193 75.5276C264.603 37.8575 227.965 11.4626 185.419 2.90652C173.347 0.492065 159.516 -0.492462 147.444 0.234222ZM147.327 23.5349V34.2006H149.788H152.249V41.3502V48.4998H149.788H147.327V52.2504V56.001H149.788H152.249V68.5421V81.0832H149.788H147.327V84.8338V88.5844H149.788H152.249V101.126V113.667H149.788H147.327V117.417V121.168H149.788H152.249V133.709V146.25H139.708H127.167V143.789V141.327H123.417H119.666V143.789V146.25H107.125H94.5838V143.789V141.327H90.8332H87.0826V143.789V146.25H74.5415H62.0005V143.789V141.327H58.2498H54.4992V143.789V146.25H47.3497H40.2001V143.789V141.327H29.5108H18.8216L18.9857 139.733C20.9313 119.738 25.1039 104.712 33.2849 88.3266C51.6394 51.641 85.7934 24.9882 126.019 15.9633C131.715 14.674 142.732 13.0331 146.694 12.8925L147.327 12.8691V23.5349ZM169.69 13.3379C193.694 15.7992 216.033 24.1912 235.583 38.0685C259.517 55.0634 277.52 79.5361 286.591 107.431C289.92 117.628 291.795 127.052 293.014 139.733L293.178 141.327H282.489H271.8V143.789V146.25H264.65H257.501V143.789V141.327H253.75H250V143.789V146.25H237.458H224.917V143.789V141.327H221.167H217.416V143.789V146.25H204.875H192.334V143.789V141.327H188.583H184.833V143.789V146.25H172.292H159.751V133.709V121.168H162.212H164.673V117.417V113.667H162.212H159.751V101.126V88.5844H162.212H164.673V84.8338V81.0832H162.212H159.751V68.5421V56.001H162.212H164.673V52.2504V48.4998H162.212H159.751V41.3502V34.2006H162.212H164.673V23.5349C164.673 16.4321 164.744 12.8691 164.908 12.8691C165.048 12.8691 167.182 13.08 169.69 13.3379ZM54.4992 156.213V158.674H58.2498H62.0005V156.213V153.751H74.5415H87.0826V156.213V158.674H90.8332H94.5838V156.213V153.751H107.125H119.666V156.213V158.674H123.417H127.167V156.213V153.751H139.708H152.249V166.292V178.833H149.788H147.327V182.584V186.335H149.788H152.249V198.876V211.417H149.788H147.327V215.167V218.918H149.788H152.249V231.459V244H149.788H147.327V247.751V251.501H149.788H152.249V258.651V265.801H149.788H147.327V276.466C147.327 283.569 147.256 287.132 147.092 287.132C146.952 287.132 144.819 286.921 142.31 286.663C118.306 284.202 95.9669 275.81 76.4168 261.933C50.6549 243.649 31.9956 216.972 23.5802 186.428C21.3298 178.294 19.9937 170.699 18.9857 160.244L18.8216 158.674H29.5108H40.2001V156.213V153.751H47.3497H54.4992V156.213ZM184.833 156.213V158.674H188.583H192.334V156.213V153.751H204.875H217.416V156.213V158.674H221.167H224.917V156.213V153.751H237.458H250V156.213V158.674H253.75H257.501V156.213V153.751H264.65H271.8V156.213V158.674H282.489H293.178L293.014 160.244C291.069 180.263 286.896 195.289 278.715 211.675C259.165 250.775 221.964 278.178 178.527 285.468C175.128 286.054 166.197 287.132 164.908 287.132C164.744 287.132 164.673 283.569 164.673 276.466V265.801H162.212H159.751V258.651V251.501H162.212H164.673V247.751V244H162.212H159.751V231.459V218.918H162.212H164.673V215.167V211.417H162.212H159.751V198.876V186.335H162.212H164.673V182.584V178.833H162.212H159.751V166.292V153.751H172.292H184.833V156.213Z" fill="white"/>
<path d="M225.229 34.4303C225.28 34.6706 225.697 35.7714 226.14 36.8847C226.596 37.9981 227.127 39.3645 227.317 39.9212C228.544 43.4258 227.873 44.944 225.09 44.9693C224.331 44.9693 223.977 44.9187 223.736 44.7542C223.116 44.3494 221.914 44.0331 220.965 44.0331C219.839 44.0331 219.22 44.1975 218.713 44.6151C218.41 44.8808 218.334 45.0452 218.334 45.4374C218.334 45.855 218.422 46.0194 218.941 46.5382C219.27 46.8671 219.776 47.3099 220.055 47.525C220.801 48.1197 221.396 49.2963 221.472 50.3717C221.547 51.4092 221.358 52.2315 220.712 53.7118C219.359 56.8115 219.182 57.3176 219.131 58.4563C219.093 59.1901 219.131 59.7215 219.257 60.139C219.422 60.6324 219.422 60.8349 219.295 61.3409C218.84 63.011 217.461 64.757 215.626 65.9715C214.437 66.756 213.665 67.1608 211.287 68.2109C207.706 69.7924 207.099 70.1087 207.023 70.425C206.972 70.6021 207.01 70.8552 207.086 70.9944C207.301 71.4119 208.111 71.2474 210.414 70.2859C212.463 69.4255 213.792 69.008 214.095 69.1345C214.184 69.1598 214.336 69.1092 214.437 68.9954C214.64 68.7423 215.361 68.4387 215.576 68.5019C216.158 68.6917 216.563 68.6917 216.563 68.5146C216.563 68.2742 216.765 68.2742 216.866 68.5146C216.904 68.6158 217.094 68.7044 217.284 68.7044C217.676 68.7044 218.056 68.4893 218.675 67.9073L219.08 67.5277L219.915 67.7934C221.585 68.3501 222.408 69.0333 224.824 71.9053C226.925 74.3977 227.81 75.2075 229.215 75.8654C229.733 76.1184 230.252 76.3588 230.353 76.4094C230.632 76.5612 231.074 77.2444 231.378 78.0415C231.53 78.4464 231.833 79.876 232.061 81.2298C232.555 84.1524 232.681 84.6711 233.073 85.3543C233.44 85.9869 233.984 86.2526 234.554 86.0881C234.933 85.9743 234.933 85.9616 234.984 85.076C235.06 83.2794 235.781 81.0906 236.717 79.7875C237.805 78.2566 239.235 77.4342 240.829 77.4342C241.297 77.4342 241.879 77.4975 242.132 77.5607C242.55 77.6746 242.79 77.6113 244.789 76.8143C247.648 75.6756 248.306 75.4985 249.458 75.4985C250.482 75.5111 251.077 75.7009 251.697 76.2196L252.077 76.5359L252.228 75.1568C252.646 71.3233 254.265 68.5019 256.733 67.3633C257.416 67.047 257.96 66.8951 258.567 66.8445L259.427 66.7686L258.63 65.9968C257.606 65.01 257.403 64.4533 257.745 63.555C258.225 62.3151 259.68 61.2524 263.792 59.2028C265.311 58.4436 266.677 57.7478 266.816 57.6466C267.069 57.4694 267.069 57.4694 266.766 57.267C265.905 56.6977 265.108 56.5079 262.173 56.1789C260.958 56.0398 259.605 55.8373 259.174 55.7361C257.036 55.1794 255.986 54.1673 255.594 52.3074C255.328 51.0549 255.353 50.2072 255.657 49.8277C256.188 49.1445 257.846 48.8282 259.63 49.0812C260.186 49.1571 260.655 49.1951 260.68 49.1698C260.806 49.0559 258.554 48.2968 257.745 48.1956C255.67 47.9299 253.861 47.1834 252.861 46.1839C252.089 45.4121 251.836 44.9061 251.773 43.9698C251.697 43.0589 252.026 42.0467 252.697 41.1737C253.177 40.5411 253.152 40.3514 252.545 39.8706C252.304 39.6808 252.026 39.6049 251.596 39.6049C251.077 39.6049 250.723 39.7441 249.483 40.3893C246.56 41.9329 245.814 42.2745 244.903 42.4642C243.511 42.7552 242.6 42.5148 241.424 41.5659C240.07 40.4779 238.817 40.3387 235.794 40.946C233.579 41.3888 232.302 41.4015 231.403 41.0093C230.632 40.6677 229.999 40.0098 229.531 39.0862C228.949 37.9601 226.418 34.911 225.495 34.2531L225.141 34.0001L225.229 34.4303ZM222.003 67.9452C222.003 68.0085 221.952 68.0718 221.876 68.0718C221.813 68.0718 221.75 68.0085 221.75 67.9452C221.75 67.8693 221.813 67.8187 221.876 67.8187C221.952 67.8187 222.003 67.8693 222.003 67.9452Z" fill="#FF0000"/>
<path d="M12.7922 180.87C10.9942 184.094 9.49341 186.739 9.44883 186.724C9.40425 186.724 7.88861 185.104 6.06092 183.128C1.2911 177.957 0.964199 177.63 0.830465 177.764C0.74131 177.883 3.44569 185.149 6.00148 191.568L6.75931 193.5L6.28381 193.99C6.01634 194.258 4.8276 195.149 3.624 195.981C1.48427 197.438 -0.165104 198.923 0.0132067 199.221C0.0577844 199.31 0.488703 199.369 0.964199 199.369C1.91519 199.369 3.19309 199.696 3.89147 200.127C4.67901 200.603 4.91676 201.658 4.47098 202.742C3.98063 203.916 4.21837 205.803 5.34768 209.741C5.64486 210.751 5.92719 212.044 5.97177 212.594L6.07578 213.619L5.36254 214.407C3.96577 215.952 3.72802 217.26 4.73845 217.824C4.91676 217.914 5.80831 218.047 6.69987 218.092C9.93919 218.285 11.2468 219.489 10.3998 221.48C9.93919 222.55 9.59742 223.976 9.50827 225.18C9.40425 226.339 9.41911 226.398 9.80545 226.785C10.1324 227.111 10.2809 227.156 10.6821 227.082C10.9496 227.022 11.3211 226.889 11.5291 226.785C11.7372 226.681 12.3018 226.517 12.7773 226.413C13.2677 226.309 14.6496 225.938 15.8532 225.596C18.3941 224.853 20.0138 224.571 20.9796 224.719C21.5888 224.808 21.6929 224.883 21.886 225.358C22.3021 226.324 22.3021 228.434 21.8712 231.525C21.4254 234.764 21.366 236.205 21.6929 235.938C21.9009 235.76 24.947 229.742 25.9872 227.438C26.6707 225.938 27.3988 225.135 28.2161 225.001C28.543 224.942 29.7614 224.6 30.8907 224.244C33.5357 223.412 34.2935 223.308 35.1851 223.709C35.9726 224.05 36.4927 224.675 36.9384 225.804C37.3545 226.874 38.2163 228.152 38.6027 228.285C39.093 228.434 39.197 228.092 39.0633 226.562C38.6918 222 39.6428 219.474 43.1199 215.759C44.056 214.778 44.6504 214.6 46.6415 214.734C47.86 214.808 48.0829 214.793 48.0829 214.6C48.0829 214.437 48.2463 214.377 48.6624 214.377C49.9551 214.377 49.9403 213.976 48.6327 213.144C47.1913 212.208 46.2552 210.9 46.3295 209.949C46.3592 209.488 46.4632 209.355 46.8941 209.147C47.3399 208.924 47.8897 208.879 50.4604 208.864C52.1395 208.849 54.9627 208.805 56.7458 208.745L60 208.656L53.5065 206.145L46.9982 203.619L47.7263 203.025C49.6431 201.42 49.7768 201.152 48.6773 201.152C48.0383 201.152 47.8749 201.004 48.0086 200.573C48.1275 200.172 49.0339 199.77 51.2628 199.146C52.3029 198.864 53.4768 198.448 53.8483 198.255C54.2346 198.047 54.6358 197.883 54.7398 197.883C54.8438 197.883 55.2599 197.72 55.6611 197.512C56.3892 197.14 56.5824 196.888 56.2258 196.784C55.9731 196.709 52.6001 196.308 49.8809 196.011C48.603 195.877 47.2805 195.64 46.5672 195.417L45.3785 195.03L45.4677 194.495C45.6162 193.559 46.4038 192.177 47.7114 190.558C49.1082 188.819 49.7917 187.764 49.9551 187.125L50.0592 186.694L48.3652 186.783C47.4291 186.828 46.0174 187.006 45.2299 187.17C43.2388 187.586 41.4705 187.72 41.1733 187.482C40.6384 187.036 41.4557 186.338 45.5865 183.722C46.6415 183.054 47.6668 182.147 47.5479 181.969C47.5034 181.895 47.3399 181.835 47.1913 181.835C46.8644 181.835 44.6801 182.43 42.1392 183.217C40.6087 183.693 38.142 184.361 37.9192 184.361C37.726 184.361 36.9236 183.084 36.775 182.519C36.6858 182.177 36.4629 181.033 36.2698 179.978C35.7943 177.184 35.0662 175.713 34.2786 175.966C34.1152 176.011 33.1939 176.798 32.2429 177.69C30.2369 179.577 29.4048 180.186 28.6916 180.305C28.2161 180.379 28.1715 180.364 28.1715 180.008C28.1715 179.443 27.904 178.849 27.4582 178.373C26.9827 177.883 26.1506 177.823 25.6306 178.254C25.3037 178.522 25.2442 178.522 25.0213 178.314C24.739 178.061 24.843 177.942 23.7286 179.889C23.1639 180.899 22.8519 181.078 21.7523 181.048C20.4447 180.988 19.8206 180.349 18.1564 177.363C17.562 176.278 16.507 175 16.2246 175C16.1355 175 14.5753 177.645 12.7922 180.87Z" fill="#FF0000"/>
<path d="M154.764 129.748C154.496 130.225 153.019 132.85 151.498 135.609C149.962 138.353 148.649 140.606 148.575 140.606C148.5 140.606 146.532 138.562 144.19 136.072C141.103 132.746 139.94 131.597 139.91 131.821C139.895 131.97 141.222 135.594 142.863 139.86L145.86 147.615L145.219 148.197C144.861 148.51 143.713 149.36 142.639 150.076C140.387 151.612 139.507 152.328 139.209 152.91L139 153.312L140.074 153.402C143.325 153.685 144.384 154.863 143.474 157.13C143.086 158.115 143.34 159.994 144.354 163.499C144.697 164.692 145.01 166.153 145.055 166.735L145.145 167.824L144.444 168.569C143.698 169.36 143.176 170.344 143.161 170.926C143.161 171.12 143.355 171.478 143.594 171.716C144.011 172.119 144.101 172.149 145.279 172.149C147.248 172.149 148.933 172.716 149.485 173.566C149.783 174.028 149.783 175.072 149.5 175.639C148.843 176.892 148.351 179.874 148.679 180.65C148.933 181.276 149.425 181.366 150.603 180.978C151.14 180.799 152.497 180.411 153.601 180.113C154.705 179.815 156.047 179.442 156.584 179.293C157.762 178.935 160.282 178.756 160.7 178.98C161.401 179.352 161.55 182.052 161.073 185.422C160.685 188.152 160.566 189.509 160.685 189.897C160.79 190.225 160.79 190.225 161.073 189.807C161.386 189.33 164.1 183.901 165.13 181.694C165.845 180.128 166.457 179.367 167.113 179.233C167.352 179.188 168.515 178.83 169.708 178.458C173.944 177.13 175.122 177.414 176.166 180.009C176.777 181.53 177.851 182.857 178.179 182.514C178.239 182.455 178.284 181.127 178.284 179.561C178.284 176.444 178.388 175.818 179.268 174.058C179.835 172.909 180.372 172.134 181.55 170.822C182.087 170.225 182.534 169.673 182.534 169.613C182.534 169.539 182.818 169.345 183.176 169.181C183.713 168.913 184.1 168.868 185.547 168.868C186.949 168.868 187.292 168.823 187.366 168.644C187.426 168.48 187.665 168.42 188.202 168.42C188.604 168.42 188.947 168.361 188.947 168.286C188.947 168.197 188.664 167.913 188.336 167.645C185.636 165.497 184.906 164.11 186.009 163.29C186.427 162.992 186.636 162.977 192.691 162.887C196.121 162.842 198.97 162.783 198.999 162.738C199.044 162.708 196.225 161.56 192.736 160.218C189.261 158.86 186.412 157.712 186.412 157.652C186.412 157.593 186.919 157.145 187.531 156.638C188.918 155.505 188.977 155.147 187.754 155.147C187.247 155.147 187.083 154.953 187.292 154.58C187.501 154.177 188.172 153.894 190.275 153.297C191.274 152.999 192.452 152.611 192.87 152.417C193.302 152.209 193.914 151.97 194.242 151.866C195.51 151.463 196.061 150.911 195.331 150.762C194.838 150.673 192.482 150.404 189.842 150.151C187.456 149.912 186.144 149.658 185.189 149.241C184.682 149.017 184.652 148.957 184.727 148.525C184.891 147.57 185.666 146.228 186.979 144.558C188.351 142.843 189.246 141.381 189.246 140.904C189.246 140.665 189.111 140.65 187.799 140.725C186.994 140.77 185.502 140.978 184.473 141.187C183.444 141.396 182.087 141.575 181.46 141.575C180.342 141.575 180.297 141.56 180.297 141.232C180.297 140.74 180.774 140.352 183.727 138.413C186.516 136.579 187.023 136.161 186.74 135.878C186.546 135.684 186.278 135.744 182.057 137.011C180.312 137.533 178.493 138.055 178.03 138.16C177.24 138.324 177.135 138.324 176.852 138.055C176.181 137.459 175.868 136.444 175.376 133.372C175.137 131.94 174.749 130.896 174.197 130.24L173.78 129.733L173.198 130.106C172.87 130.33 171.886 131.195 170.976 132.045C169.127 133.805 168.455 134.267 167.784 134.267C167.396 134.267 167.322 134.207 167.322 133.909C167.322 132.433 165.995 131.493 164.861 132.149C164.578 132.328 164.309 132.403 164.265 132.313C164.056 131.985 163.743 132.254 163.28 133.163C163.012 133.715 162.624 134.357 162.43 134.58C162.117 134.968 161.983 135.013 161.192 135.013C159.701 135.013 159.119 134.535 157.777 132.164C156.793 130.419 156.092 129.45 155.614 129.137C155.241 128.898 155.241 128.898 154.764 129.748Z" fill="#FF0000"/>
<path d="M236.229 40.4303C236.28 40.6706 236.697 41.7714 237.14 42.8847C237.596 43.9981 238.127 45.3645 238.317 45.9212C239.544 49.4258 238.873 50.944 236.09 50.9693C235.331 50.9693 234.977 50.9187 234.736 50.7542C234.116 50.3494 232.914 50.0331 231.965 50.0331C230.839 50.0331 230.22 50.1975 229.713 50.6151C229.41 50.8808 229.334 51.0452 229.334 51.4374C229.334 51.855 229.422 52.0194 229.941 52.5382C230.27 52.8671 230.776 53.3099 231.055 53.525C231.801 54.1197 232.396 55.2963 232.472 56.3717C232.547 57.4092 232.358 58.2315 231.712 59.7118C230.359 62.8115 230.182 63.3176 230.131 64.4563C230.093 65.1901 230.131 65.7215 230.257 66.139C230.422 66.6324 230.422 66.8349 230.295 67.3409C229.84 69.011 228.461 70.757 226.626 71.9715C225.437 72.756 224.665 73.1608 222.287 74.2109C218.706 75.7924 218.099 76.1087 218.023 76.425C217.972 76.6021 218.01 76.8552 218.086 76.9944C218.301 77.4119 219.111 77.2474 221.414 76.2859C223.463 75.4255 224.792 75.008 225.095 75.1345C225.184 75.1598 225.336 75.1092 225.437 74.9954C225.64 74.7423 226.361 74.4387 226.576 74.5019C227.158 74.6917 227.563 74.6917 227.563 74.5146C227.563 74.2742 227.765 74.2742 227.866 74.5146C227.904 74.6158 228.094 74.7044 228.284 74.7044C228.676 74.7044 229.056 74.4893 229.675 73.9073L230.08 73.5277L230.915 73.7934C232.585 74.3501 233.408 75.0333 235.824 77.9053C237.925 80.3977 238.81 81.2075 240.215 81.8654C240.733 82.1184 241.252 82.3588 241.353 82.4094C241.632 82.5612 242.074 83.2444 242.378 84.0415C242.53 84.4464 242.833 85.876 243.061 87.2298C243.555 90.1524 243.681 90.6711 244.073 91.3543C244.44 91.9869 244.984 92.2526 245.554 92.0881C245.933 91.9743 245.933 91.9616 245.984 91.076C246.06 89.2794 246.781 87.0906 247.717 85.7875C248.805 84.2566 250.235 83.4342 251.829 83.4342C252.297 83.4342 252.879 83.4975 253.132 83.5607C253.55 83.6746 253.79 83.6113 255.789 82.8143C258.648 81.6756 259.306 81.4985 260.458 81.4985C261.482 81.5111 262.077 81.7009 262.697 82.2196L263.077 82.5359L263.228 81.1568C263.646 77.3233 265.265 74.5019 267.733 73.3633C268.416 73.047 268.96 72.8951 269.567 72.8445L270.427 72.7686L269.63 71.9968C268.606 71.01 268.403 70.4533 268.745 69.555C269.225 68.3151 270.68 67.2524 274.792 65.2028C276.311 64.4436 277.677 63.7478 277.816 63.6466C278.069 63.4694 278.069 63.4694 277.766 63.267C276.905 62.6977 276.108 62.5079 273.173 62.1789C271.958 62.0398 270.605 61.8373 270.174 61.7361C268.036 61.1794 266.986 60.1673 266.594 58.3074C266.328 57.0549 266.353 56.2072 266.657 55.8277C267.188 55.1445 268.846 54.8282 270.63 55.0812C271.186 55.1571 271.655 55.1951 271.68 55.1698C271.806 55.0559 269.554 54.2968 268.745 54.1956C266.67 53.9299 264.861 53.1834 263.861 52.1839C263.089 51.4121 262.836 50.9061 262.773 49.9698C262.697 49.0589 263.026 48.0467 263.697 47.1737C264.177 46.5411 264.152 46.3514 263.545 45.8706C263.304 45.6808 263.026 45.6049 262.596 45.6049C262.077 45.6049 261.723 45.7441 260.483 46.3893C257.56 47.9329 256.814 48.2745 255.903 48.4642C254.511 48.7552 253.6 48.5148 252.424 47.5659C251.07 46.4779 249.817 46.3387 246.794 46.946C244.579 47.3888 243.302 47.4015 242.403 47.0093C241.632 46.6677 240.999 46.0098 240.531 45.0862C239.949 43.9601 237.418 40.911 236.495 40.2531L236.141 40.0001L236.229 40.4303ZM233.003 73.9452C233.003 74.0085 232.952 74.0718 232.876 74.0718C232.813 74.0718 232.75 74.0085 232.75 73.9452C232.75 73.8693 232.813 73.8187 232.876 73.8187C232.952 73.8187 233.003 73.8693 233.003 73.9452Z" fill="#333EF6"/>
<path d="M23.7922 186.87C21.9942 190.094 20.4934 192.739 20.4488 192.724C20.4043 192.724 18.8886 191.104 17.0609 189.128C12.2911 183.957 11.9642 183.63 11.8305 183.764C11.7413 183.883 14.4457 191.149 17.0015 197.568L17.7593 199.5L17.2838 199.99C17.0163 200.258 15.8276 201.149 14.624 201.981C12.4843 203.438 10.8349 204.923 11.0132 205.221C11.0578 205.31 11.4887 205.369 11.9642 205.369C12.9152 205.369 14.1931 205.696 14.8915 206.127C15.679 206.603 15.9168 207.658 15.471 208.742C14.9806 209.916 15.2184 211.803 16.3477 215.741C16.6449 216.751 16.9272 218.044 16.9718 218.594L17.0758 219.619L16.3625 220.407C14.9658 221.952 14.728 223.26 15.7384 223.824C15.9168 223.914 16.8083 224.047 17.6999 224.092C20.9392 224.285 22.2468 225.489 21.3998 227.48C20.9392 228.55 20.5974 229.976 20.5083 231.18C20.4043 232.339 20.4191 232.398 20.8055 232.785C21.1324 233.111 21.2809 233.156 21.6821 233.082C21.9496 233.022 22.3211 232.889 22.5291 232.785C22.7372 232.681 23.3018 232.517 23.7773 232.413C24.2677 232.309 25.6496 231.938 26.8532 231.596C29.3941 230.853 31.0138 230.571 31.9796 230.719C32.5888 230.808 32.6929 230.883 32.886 231.358C33.3021 232.324 33.3021 234.434 32.8712 237.525C32.4254 240.764 32.366 242.205 32.6929 241.938C32.9009 241.76 35.947 235.742 36.9872 233.438C37.6707 231.938 38.3988 231.135 39.2161 231.001C39.543 230.942 40.7614 230.6 41.8907 230.244C44.5357 229.412 45.2935 229.308 46.1851 229.709C46.9726 230.05 47.4927 230.675 47.9384 231.804C48.3545 232.874 49.2163 234.152 49.6027 234.285C50.093 234.434 50.197 234.092 50.0633 232.562C49.6918 228 50.6428 225.474 54.1199 221.759C55.056 220.778 55.6504 220.6 57.6415 220.734C58.86 220.808 59.0829 220.793 59.0829 220.6C59.0829 220.437 59.2463 220.377 59.6624 220.377C60.9551 220.377 60.9403 219.976 59.6327 219.144C58.1913 218.208 57.2552 216.9 57.3295 215.949C57.3592 215.488 57.4632 215.355 57.8941 215.147C58.3399 214.924 58.8897 214.879 61.4604 214.864C63.1395 214.849 65.9627 214.805 67.7458 214.745L71 214.656L64.5065 212.145L57.9982 209.619L58.7263 209.025C60.6431 207.42 60.7768 207.152 59.6773 207.152C59.0383 207.152 58.8749 207.004 59.0086 206.573C59.1275 206.172 60.0339 205.77 62.2628 205.146C63.3029 204.864 64.4768 204.448 64.8483 204.255C65.2346 204.047 65.6358 203.883 65.7398 203.883C65.8438 203.883 66.2599 203.72 66.6611 203.512C67.3892 203.14 67.5824 202.888 67.2258 202.784C66.9731 202.709 63.6001 202.308 60.8809 202.011C59.603 201.877 58.2805 201.64 57.5672 201.417L56.3785 201.03L56.4677 200.495C56.6162 199.559 57.4038 198.177 58.7114 196.558C60.1082 194.819 60.7917 193.764 60.9551 193.125L61.0592 192.694L59.3652 192.783C58.4291 192.828 57.0174 193.006 56.2299 193.17C54.2388 193.586 52.4705 193.72 52.1733 193.482C51.6384 193.036 52.4557 192.338 56.5865 189.722C57.6415 189.054 58.6668 188.147 58.5479 187.969C58.5034 187.895 58.3399 187.835 58.1913 187.835C57.8644 187.835 55.6801 188.43 53.1392 189.217C51.6087 189.693 49.142 190.361 48.9192 190.361C48.726 190.361 47.9236 189.084 47.775 188.519C47.6858 188.177 47.4629 187.033 47.2698 185.978C46.7943 183.184 46.0662 181.713 45.2786 181.966C45.1152 182.011 44.1939 182.798 43.2429 183.69C41.2369 185.577 40.4048 186.186 39.6916 186.305C39.2161 186.379 39.1715 186.364 39.1715 186.008C39.1715 185.443 38.904 184.849 38.4582 184.373C37.9827 183.883 37.1506 183.823 36.6306 184.254C36.3037 184.522 36.2442 184.522 36.0213 184.314C35.739 184.061 35.843 183.942 34.7286 185.889C34.1639 186.899 33.8519 187.078 32.7523 187.048C31.4447 186.988 30.8206 186.349 29.1564 183.363C28.562 182.278 27.507 181 27.2246 181C27.1355 181 25.5753 183.645 23.7922 186.87Z" fill="#333EF6"/>
<path d="M165.764 135.748C165.496 136.225 164.019 138.85 162.498 141.609C160.962 144.353 159.649 146.606 159.575 146.606C159.5 146.606 157.532 144.562 155.19 142.072C152.103 138.746 150.94 137.597 150.91 137.821C150.895 137.97 152.222 141.594 153.863 145.86L156.86 153.615L156.219 154.197C155.861 154.51 154.713 155.36 153.639 156.076C151.387 157.612 150.507 158.328 150.209 158.91L150 159.312L151.074 159.402C154.325 159.685 155.384 160.863 154.474 163.13C154.086 164.115 154.34 165.994 155.354 169.499C155.697 170.692 156.01 172.153 156.055 172.735L156.145 173.824L155.444 174.569C154.698 175.36 154.176 176.344 154.161 176.926C154.161 177.12 154.355 177.478 154.594 177.716C155.011 178.119 155.101 178.149 156.279 178.149C158.248 178.149 159.933 178.716 160.485 179.566C160.783 180.028 160.783 181.072 160.5 181.639C159.843 182.892 159.351 185.874 159.679 186.65C159.933 187.276 160.425 187.366 161.603 186.978C162.14 186.799 163.497 186.411 164.601 186.113C165.705 185.815 167.047 185.442 167.584 185.293C168.762 184.935 171.282 184.756 171.7 184.98C172.401 185.352 172.55 188.052 172.073 191.422C171.685 194.152 171.566 195.509 171.685 195.897C171.79 196.225 171.79 196.225 172.073 195.807C172.386 195.33 175.1 189.901 176.13 187.694C176.845 186.128 177.457 185.367 178.113 185.233C178.352 185.188 179.515 184.83 180.708 184.458C184.944 183.13 186.122 183.414 187.166 186.009C187.777 187.53 188.851 188.857 189.179 188.514C189.239 188.455 189.284 187.127 189.284 185.561C189.284 182.444 189.388 181.818 190.268 180.058C190.835 178.909 191.372 178.134 192.55 176.822C193.087 176.225 193.534 175.673 193.534 175.613C193.534 175.539 193.818 175.345 194.176 175.181C194.713 174.913 195.1 174.868 196.547 174.868C197.949 174.868 198.292 174.823 198.366 174.644C198.426 174.48 198.665 174.42 199.202 174.42C199.604 174.42 199.947 174.361 199.947 174.286C199.947 174.197 199.664 173.913 199.336 173.645C196.636 171.497 195.906 170.11 197.009 169.29C197.427 168.992 197.636 168.977 203.691 168.887C207.121 168.842 209.97 168.783 209.999 168.738C210.044 168.708 207.225 167.56 203.736 166.218C200.261 164.86 197.412 163.712 197.412 163.652C197.412 163.593 197.919 163.145 198.531 162.638C199.918 161.505 199.977 161.147 198.754 161.147C198.247 161.147 198.083 160.953 198.292 160.58C198.501 160.177 199.172 159.894 201.275 159.297C202.274 158.999 203.452 158.611 203.87 158.417C204.302 158.209 204.914 157.97 205.242 157.866C206.51 157.463 207.061 156.911 206.331 156.762C205.838 156.673 203.482 156.404 200.842 156.151C198.456 155.912 197.144 155.658 196.189 155.241C195.682 155.017 195.652 154.957 195.727 154.525C195.891 153.57 196.666 152.228 197.979 150.558C199.351 148.843 200.246 147.381 200.246 146.904C200.246 146.665 200.111 146.65 198.799 146.725C197.994 146.77 196.502 146.978 195.473 147.187C194.444 147.396 193.087 147.575 192.46 147.575C191.342 147.575 191.297 147.56 191.297 147.232C191.297 146.74 191.774 146.352 194.727 144.413C197.516 142.579 198.023 142.161 197.74 141.878C197.546 141.684 197.278 141.744 193.057 143.011C191.312 143.533 189.493 144.055 189.03 144.16C188.24 144.324 188.135 144.324 187.852 144.055C187.181 143.459 186.868 142.444 186.376 139.372C186.137 137.94 185.749 136.896 185.197 136.24L184.78 135.733L184.198 136.106C183.87 136.33 182.886 137.195 181.976 138.045C180.127 139.805 179.455 140.267 178.784 140.267C178.396 140.267 178.322 140.207 178.322 139.909C178.322 138.433 176.995 137.493 175.861 138.149C175.578 138.328 175.309 138.403 175.265 138.313C175.056 137.985 174.743 138.254 174.28 139.163C174.012 139.715 173.624 140.357 173.43 140.58C173.117 140.968 172.983 141.013 172.192 141.013C170.701 141.013 170.119 140.535 168.777 138.164C167.793 136.419 167.092 135.45 166.614 135.137C166.241 134.898 166.241 134.898 165.764 135.748Z" fill="#333EF6"/>
<path d="M231.229 34.4303C231.28 34.6706 231.697 35.7714 232.14 36.8847C232.596 37.9981 233.127 39.3645 233.317 39.9212C234.544 43.4258 233.873 44.944 231.09 44.9693C230.331 44.9693 229.977 44.9187 229.736 44.7542C229.116 44.3494 227.914 44.0331 226.965 44.0331C225.839 44.0331 225.22 44.1975 224.713 44.6151C224.41 44.8808 224.334 45.0452 224.334 45.4374C224.334 45.855 224.422 46.0194 224.941 46.5382C225.27 46.8671 225.776 47.3099 226.055 47.525C226.801 48.1197 227.396 49.2963 227.472 50.3717C227.547 51.4092 227.358 52.2315 226.712 53.7118C225.359 56.8115 225.182 57.3176 225.131 58.4563C225.093 59.1901 225.131 59.7215 225.257 60.139C225.422 60.6324 225.422 60.8349 225.295 61.3409C224.84 63.011 223.461 64.757 221.626 65.9715C220.437 66.756 219.665 67.1608 217.287 68.2109C213.706 69.7924 213.099 70.1087 213.023 70.425C212.972 70.6021 213.01 70.8552 213.086 70.9944C213.301 71.4119 214.111 71.2474 216.414 70.2859C218.463 69.4255 219.792 69.008 220.095 69.1345C220.184 69.1598 220.336 69.1092 220.437 68.9954C220.64 68.7423 221.361 68.4387 221.576 68.5019C222.158 68.6917 222.563 68.6917 222.563 68.5146C222.563 68.2742 222.765 68.2742 222.866 68.5146C222.904 68.6158 223.094 68.7044 223.284 68.7044C223.676 68.7044 224.056 68.4893 224.675 67.9073L225.08 67.5277L225.915 67.7934C227.585 68.3501 228.408 69.0333 230.824 71.9053C232.925 74.3977 233.81 75.2075 235.215 75.8654C235.733 76.1184 236.252 76.3588 236.353 76.4094C236.632 76.5612 237.074 77.2444 237.378 78.0415C237.53 78.4464 237.833 79.876 238.061 81.2298C238.555 84.1524 238.681 84.6711 239.073 85.3543C239.44 85.9869 239.984 86.2526 240.554 86.0881C240.933 85.9743 240.933 85.9616 240.984 85.076C241.06 83.2794 241.781 81.0906 242.717 79.7875C243.805 78.2566 245.235 77.4342 246.829 77.4342C247.297 77.4342 247.879 77.4975 248.132 77.5607C248.55 77.6746 248.79 77.6113 250.789 76.8143C253.648 75.6756 254.306 75.4985 255.458 75.4985C256.482 75.5111 257.077 75.7009 257.697 76.2196L258.077 76.5359L258.228 75.1568C258.646 71.3233 260.265 68.5019 262.733 67.3633C263.416 67.047 263.96 66.8951 264.567 66.8445L265.427 66.7686L264.63 65.9968C263.606 65.01 263.403 64.4533 263.745 63.555C264.225 62.3151 265.68 61.2524 269.792 59.2028C271.311 58.4436 272.677 57.7478 272.816 57.6466C273.069 57.4694 273.069 57.4694 272.766 57.267C271.905 56.6977 271.108 56.5079 268.173 56.1789C266.958 56.0398 265.605 55.8373 265.174 55.7361C263.036 55.1794 261.986 54.1673 261.594 52.3074C261.328 51.0549 261.353 50.2072 261.657 49.8277C262.188 49.1445 263.846 48.8282 265.63 49.0812C266.186 49.1571 266.655 49.1951 266.68 49.1698C266.806 49.0559 264.554 48.2968 263.745 48.1956C261.67 47.9299 259.861 47.1834 258.861 46.1839C258.089 45.4121 257.836 44.9061 257.773 43.9698C257.697 43.0589 258.026 42.0467 258.697 41.1737C259.177 40.5411 259.152 40.3514 258.545 39.8706C258.304 39.6808 258.026 39.6049 257.596 39.6049C257.077 39.6049 256.723 39.7441 255.483 40.3893C252.56 41.9329 251.814 42.2745 250.903 42.4642C249.511 42.7552 248.6 42.5148 247.424 41.5659C246.07 40.4779 244.817 40.3387 241.794 40.946C239.579 41.3888 238.302 41.4015 237.403 41.0093C236.632 40.6677 235.999 40.0098 235.531 39.0862C234.949 37.9601 232.418 34.911 231.495 34.2531L231.141 34.0001L231.229 34.4303ZM228.003 67.9452C228.003 68.0085 227.952 68.0718 227.876 68.0718C227.813 68.0718 227.75 68.0085 227.75 67.9452C227.75 67.8693 227.813 67.8187 227.876 67.8187C227.952 67.8187 228.003 67.8693 228.003 67.9452Z" fill="#212121"/>
<path d="M18.7922 180.87C16.9942 184.094 15.4934 186.739 15.4488 186.724C15.4043 186.724 13.8886 185.104 12.0609 183.128C7.2911 177.957 6.9642 177.63 6.83047 177.764C6.74131 177.883 9.44569 185.149 12.0015 191.568L12.7593 193.5L12.2838 193.99C12.0163 194.258 10.8276 195.149 9.624 195.981C7.48427 197.438 5.8349 198.923 6.01321 199.221C6.05778 199.31 6.4887 199.369 6.9642 199.369C7.91519 199.369 9.19309 199.696 9.89147 200.127C10.679 200.603 10.9168 201.658 10.471 202.742C9.98063 203.916 10.2184 205.803 11.3477 209.741C11.6449 210.751 11.9272 212.044 11.9718 212.594L12.0758 213.619L11.3625 214.407C9.96577 215.952 9.72802 217.26 10.7384 217.824C10.9168 217.914 11.8083 218.047 12.6999 218.092C15.9392 218.285 17.2468 219.489 16.3998 221.48C15.9392 222.55 15.5974 223.976 15.5083 225.18C15.4043 226.339 15.4191 226.398 15.8055 226.785C16.1324 227.111 16.2809 227.156 16.6821 227.082C16.9496 227.022 17.3211 226.889 17.5291 226.785C17.7372 226.681 18.3018 226.517 18.7773 226.413C19.2677 226.309 20.6496 225.938 21.8532 225.596C24.3941 224.853 26.0138 224.571 26.9796 224.719C27.5888 224.808 27.6929 224.883 27.886 225.358C28.3021 226.324 28.3021 228.434 27.8712 231.525C27.4254 234.764 27.366 236.205 27.6929 235.938C27.9009 235.76 30.947 229.742 31.9872 227.438C32.6707 225.938 33.3988 225.135 34.2161 225.001C34.543 224.942 35.7614 224.6 36.8907 224.244C39.5357 223.412 40.2935 223.308 41.1851 223.709C41.9726 224.05 42.4927 224.675 42.9384 225.804C43.3545 226.874 44.2163 228.152 44.6027 228.285C45.093 228.434 45.197 228.092 45.0633 226.562C44.6918 222 45.6428 219.474 49.1199 215.759C50.056 214.778 50.6504 214.6 52.6415 214.734C53.86 214.808 54.0829 214.793 54.0829 214.6C54.0829 214.437 54.2463 214.377 54.6624 214.377C55.9551 214.377 55.9403 213.976 54.6327 213.144C53.1913 212.208 52.2552 210.9 52.3295 209.949C52.3592 209.488 52.4632 209.355 52.8941 209.147C53.3399 208.924 53.8897 208.879 56.4604 208.864C58.1395 208.849 60.9627 208.805 62.7458 208.745L66 208.656L59.5065 206.145L52.9982 203.619L53.7263 203.025C55.6431 201.42 55.7768 201.152 54.6773 201.152C54.0383 201.152 53.8749 201.004 54.0086 200.573C54.1275 200.172 55.0339 199.77 57.2628 199.146C58.3029 198.864 59.4768 198.448 59.8483 198.255C60.2346 198.047 60.6358 197.883 60.7398 197.883C60.8438 197.883 61.2599 197.72 61.6611 197.512C62.3892 197.14 62.5824 196.888 62.2258 196.784C61.9731 196.709 58.6001 196.308 55.8809 196.011C54.603 195.877 53.2805 195.64 52.5672 195.417L51.3785 195.03L51.4677 194.495C51.6162 193.559 52.4038 192.177 53.7114 190.558C55.1082 188.819 55.7917 187.764 55.9551 187.125L56.0592 186.694L54.3652 186.783C53.4291 186.828 52.0174 187.006 51.2299 187.17C49.2388 187.586 47.4705 187.72 47.1733 187.482C46.6384 187.036 47.4557 186.338 51.5865 183.722C52.6415 183.054 53.6668 182.147 53.5479 181.969C53.5034 181.895 53.3399 181.835 53.1913 181.835C52.8644 181.835 50.6801 182.43 48.1392 183.217C46.6087 183.693 44.142 184.361 43.9192 184.361C43.726 184.361 42.9236 183.084 42.775 182.519C42.6858 182.177 42.4629 181.033 42.2698 179.978C41.7943 177.184 41.0662 175.713 40.2786 175.966C40.1152 176.011 39.1939 176.798 38.2429 177.69C36.2369 179.577 35.4048 180.186 34.6916 180.305C34.2161 180.379 34.1715 180.364 34.1715 180.008C34.1715 179.443 33.904 178.849 33.4582 178.373C32.9827 177.883 32.1506 177.823 31.6306 178.254C31.3037 178.522 31.2442 178.522 31.0213 178.314C30.739 178.061 30.843 177.942 29.7286 179.889C29.1639 180.899 28.8519 181.078 27.7523 181.048C26.4447 180.988 25.8206 180.349 24.1564 177.363C23.562 176.278 22.507 175 22.2246 175C22.1355 175 20.5753 177.645 18.7922 180.87Z" fill="#212121"/>
<path d="M160.764 129.748C160.496 130.225 159.019 132.85 157.498 135.609C155.962 138.353 154.649 140.606 154.575 140.606C154.5 140.606 152.532 138.562 150.19 136.072C147.103 132.746 145.94 131.597 145.91 131.821C145.895 131.97 147.222 135.594 148.863 139.86L151.86 147.615L151.219 148.197C150.861 148.51 149.713 149.36 148.639 150.076C146.387 151.612 145.507 152.328 145.209 152.91L145 153.312L146.074 153.402C149.325 153.685 150.384 154.863 149.474 157.13C149.086 158.115 149.34 159.994 150.354 163.499C150.697 164.692 151.01 166.153 151.055 166.735L151.145 167.824L150.444 168.569C149.698 169.36 149.176 170.344 149.161 170.926C149.161 171.12 149.355 171.478 149.594 171.716C150.011 172.119 150.101 172.149 151.279 172.149C153.248 172.149 154.933 172.716 155.485 173.566C155.783 174.028 155.783 175.072 155.5 175.639C154.843 176.892 154.351 179.874 154.679 180.65C154.933 181.276 155.425 181.366 156.603 180.978C157.14 180.799 158.497 180.411 159.601 180.113C160.705 179.815 162.047 179.442 162.584 179.293C163.762 178.935 166.282 178.756 166.7 178.98C167.401 179.352 167.55 182.052 167.073 185.422C166.685 188.152 166.566 189.509 166.685 189.897C166.79 190.225 166.79 190.225 167.073 189.807C167.386 189.33 170.1 183.901 171.13 181.694C171.845 180.128 172.457 179.367 173.113 179.233C173.352 179.188 174.515 178.83 175.708 178.458C179.944 177.13 181.122 177.414 182.166 180.009C182.777 181.53 183.851 182.857 184.179 182.514C184.239 182.455 184.284 181.127 184.284 179.561C184.284 176.444 184.388 175.818 185.268 174.058C185.835 172.909 186.372 172.134 187.55 170.822C188.087 170.225 188.534 169.673 188.534 169.613C188.534 169.539 188.818 169.345 189.176 169.181C189.713 168.913 190.1 168.868 191.547 168.868C192.949 168.868 193.292 168.823 193.366 168.644C193.426 168.48 193.665 168.42 194.202 168.42C194.604 168.42 194.947 168.361 194.947 168.286C194.947 168.197 194.664 167.913 194.336 167.645C191.636 165.497 190.906 164.11 192.009 163.29C192.427 162.992 192.636 162.977 198.691 162.887C202.121 162.842 204.97 162.783 204.999 162.738C205.044 162.708 202.225 161.56 198.736 160.218C195.261 158.86 192.412 157.712 192.412 157.652C192.412 157.593 192.919 157.145 193.531 156.638C194.918 155.505 194.977 155.147 193.754 155.147C193.247 155.147 193.083 154.953 193.292 154.58C193.501 154.177 194.172 153.894 196.275 153.297C197.274 152.999 198.452 152.611 198.87 152.417C199.302 152.209 199.914 151.97 200.242 151.866C201.51 151.463 202.061 150.911 201.331 150.762C200.838 150.673 198.482 150.404 195.842 150.151C193.456 149.912 192.144 149.658 191.189 149.241C190.682 149.017 190.652 148.957 190.727 148.525C190.891 147.57 191.666 146.228 192.979 144.558C194.351 142.843 195.246 141.381 195.246 140.904C195.246 140.665 195.111 140.65 193.799 140.725C192.994 140.77 191.502 140.978 190.473 141.187C189.444 141.396 188.087 141.575 187.46 141.575C186.342 141.575 186.297 141.56 186.297 141.232C186.297 140.74 186.774 140.352 189.727 138.413C192.516 136.579 193.023 136.161 192.74 135.878C192.546 135.684 192.278 135.744 188.057 137.011C186.312 137.533 184.493 138.055 184.03 138.16C183.24 138.324 183.135 138.324 182.852 138.055C182.181 137.459 181.868 136.444 181.376 133.372C181.137 131.94 180.749 130.896 180.197 130.24L179.78 129.733L179.198 130.106C178.87 130.33 177.886 131.195 176.976 132.045C175.127 133.805 174.455 134.267 173.784 134.267C173.396 134.267 173.322 134.207 173.322 133.909C173.322 132.433 171.995 131.493 170.861 132.149C170.578 132.328 170.309 132.403 170.265 132.313C170.056 131.985 169.743 132.254 169.28 133.163C169.012 133.715 168.624 134.357 168.43 134.58C168.117 134.968 167.983 135.013 167.192 135.013C165.701 135.013 165.119 134.535 163.777 132.164C162.793 130.419 162.092 129.45 161.614 129.137C161.241 128.898 161.241 128.898 160.764 129.748Z" fill="#212121"/>
</svg>
