<svg width="350" height="350" viewBox="0 0 350 350" fill="none" xmlns="http://www.w3.org/2000/svg">
<path d="M175 322.656C145.796 322.656 117.248 313.996 92.9665 297.772C68.6846 281.547 49.7591 258.486 38.5834 231.506C27.4076 204.525 24.4835 174.836 30.1809 146.194C35.8782 117.551 49.9411 91.2414 70.5912 70.5913C91.2413 49.9412 117.551 35.8783 146.194 30.181C174.836 24.4836 204.525 27.4077 231.506 38.5835C258.486 49.7592 281.547 68.6847 297.772 92.9666C313.996 117.249 322.656 145.796 322.656 175C322.598 214.143 307.023 251.667 279.345 279.345C251.666 307.023 214.143 322.598 175 322.656ZM175 49.2188C150.123 49.2188 125.804 56.5958 105.12 70.4168C84.435 84.2378 68.3133 103.882 58.7932 126.866C49.2731 149.849 46.7822 175.14 51.6355 199.539C56.4888 223.938 68.4683 246.35 86.0592 263.941C103.65 281.532 126.062 293.511 150.461 298.364C174.86 303.218 200.151 300.727 223.134 291.207C246.118 281.687 265.762 265.565 279.583 244.88C293.404 224.196 300.781 199.877 300.781 175C300.752 141.65 287.491 109.674 263.909 86.0913C240.326 62.509 208.35 49.2478 175 49.2188Z" fill="white"/>
<path d="M260.203 203.438C252.966 186.861 241.051 172.755 225.917 162.848C210.783 152.942 193.088 147.666 175 147.666C156.912 147.666 139.217 152.942 124.083 162.848C108.949 172.755 97.0339 186.861 89.7969 203.438C89.1946 204.817 88.8838 206.307 88.8838 207.813C88.8838 209.318 89.1946 210.808 89.7969 212.188C97.0339 228.764 108.949 242.87 124.083 252.777C139.217 262.683 156.912 267.959 175 267.959C193.088 267.959 210.783 262.683 225.917 252.777C241.051 242.87 252.966 228.764 260.203 212.188C260.805 210.808 261.116 209.318 261.116 207.813C261.116 206.307 260.805 204.817 260.203 203.438Z" fill="white"/>
<path d="M175 169.531C199.162 169.531 218.75 149.944 218.75 125.781C218.75 101.619 199.162 82.0312 175 82.0312C150.838 82.0312 131.25 101.619 131.25 125.781C131.25 149.944 150.838 169.531 175 169.531Z" fill="white"/>
<path d="M175 65.625C172.099 65.625 169.317 64.4727 167.266 62.4215C165.215 60.3703 164.062 57.5883 164.062 54.6875V21.875C164.062 18.9742 165.215 16.1922 167.266 14.141C169.317 12.0898 172.099 10.9375 175 10.9375C177.901 10.9375 180.683 12.0898 182.734 14.141C184.785 16.1922 185.938 18.9742 185.938 21.875V54.6875C185.938 57.5883 184.785 60.3703 182.734 62.4215C180.683 64.4727 177.901 65.625 175 65.625Z" fill="white"/>
<path d="M175 339.062C172.099 339.062 169.317 337.91 167.266 335.859C165.215 333.808 164.062 331.026 164.062 328.125V295.312C164.062 292.412 165.215 289.63 167.266 287.579C169.317 285.527 172.099 284.375 175 284.375C177.901 284.375 180.683 285.527 182.734 287.579C184.785 289.63 185.938 292.412 185.938 295.312V328.125C185.938 331.026 184.785 333.808 182.734 335.859C180.683 337.91 177.901 339.062 175 339.062Z" fill="white"/>
<path d="M328.125 185.938H295.312C292.412 185.938 289.63 184.785 287.579 182.734C285.527 180.683 284.375 177.901 284.375 175C284.375 172.099 285.527 169.317 287.579 167.266C289.63 165.215 292.412 164.062 295.312 164.062H328.125C331.026 164.062 333.808 165.215 335.859 167.266C337.91 169.317 339.062 172.099 339.062 175C339.062 177.901 337.91 180.683 335.859 182.734C333.808 184.785 331.026 185.938 328.125 185.938Z" fill="white"/>
<path d="M54.6875 185.938H21.875C18.9742 185.938 16.1922 184.785 14.141 182.734C12.0898 180.683 10.9375 177.901 10.9375 175C10.9375 172.099 12.0898 169.317 14.141 167.266C16.1922 165.215 18.9742 164.062 21.875 164.062H54.6875C57.5883 164.062 60.3703 165.215 62.4215 167.266C64.4727 169.317 65.625 172.099 65.625 175C65.625 177.901 64.4727 180.683 62.4215 182.734C60.3703 184.785 57.5883 185.938 54.6875 185.938Z" fill="white"/>
</svg>
