<svg width="400" height="400" viewBox="0 0 400 400" fill="none" xmlns="http://www.w3.org/2000/svg">
<path d="M262.5 50H137.5C123.693 50 112.5 61.1929 112.5 75V325C112.5 338.807 123.693 350 137.5 350H262.5C276.307 350 287.5 338.807 287.5 325V75C287.5 61.1929 276.307 50 262.5 50Z" stroke="white" stroke-width="10"/>
<path d="M175 75H225" stroke="white" stroke-width="10"/>
<path d="M187.5 325H212.5" stroke="white" stroke-width="10"/>
<path d="M243.355 186.79C243.476 186.731 243.587 186.675 243.686 186.625H244.838C246.308 186.625 247.5 187.817 247.5 189.287V209.125C247.5 211.196 245.821 212.875 243.75 212.875H241.25V215.375V238.812C241.25 240.009 240.285 240.993 239.057 241H229.688C228.479 241 227.5 240.021 227.5 238.812V215.375V212.875H225C222.929 212.875 221.25 211.196 221.25 209.125V189.45C221.25 187.89 222.515 186.625 224.075 186.625H225.21C225.3 186.672 225.398 186.723 225.505 186.777C226.051 187.052 226.819 187.419 227.721 187.787C229.461 188.496 231.957 189.318 234.375 189.318C236.786 189.318 239.319 188.499 241.091 187.795C242.01 187.429 242.797 187.064 243.355 186.79ZM175 212.875H172.5V215.375V238.812C172.5 240.021 171.521 241 170.312 241H160.938C159.729 241 158.75 240.021 158.75 238.812V215.375V212.875H156.25C154.179 212.875 152.5 211.196 152.5 209.125V189.45C152.5 187.899 153.753 186.632 155.329 186.625H156.46C157.026 186.92 157.942 187.371 159.047 187.818C160.78 188.518 163.24 189.318 165.625 189.318C168.004 189.318 170.499 188.521 172.263 187.825C173.408 187.373 174.359 186.917 174.936 186.625H176.084C177.569 186.631 178.75 187.825 178.75 189.287V209.125C178.75 211.196 177.071 212.875 175 212.875ZM209.375 212.875H206.875V215.375V238.812C206.875 240.021 205.896 241 204.688 241H195.312C194.104 241 193.125 240.021 193.125 238.812V215.375V212.875H190.625C188.554 212.875 186.875 211.196 186.875 209.125V189.45C186.875 187.899 188.128 186.632 189.704 186.625H190.835C191.401 186.92 192.317 187.371 193.422 187.818C195.155 188.518 197.615 189.318 200 189.318C202.379 189.318 204.874 188.521 206.638 187.825C207.783 187.373 208.734 186.917 209.311 186.625H210.459C211.944 186.631 213.125 187.825 213.125 189.287V209.125C213.125 211.196 211.446 212.875 209.375 212.875ZM175.625 168.5C175.625 174.023 171.148 178.5 165.625 178.5C160.102 178.5 155.625 174.023 155.625 168.5C155.625 162.977 160.102 158.5 165.625 158.5C171.148 158.5 175.625 162.977 175.625 168.5ZM210 168.5C210 174.023 205.523 178.5 200 178.5C194.477 178.5 190 174.023 190 168.5C190 162.977 194.477 158.5 200 158.5C205.523 158.5 210 162.977 210 168.5ZM244.375 168.5C244.375 174.023 239.898 178.5 234.375 178.5C228.852 178.5 224.375 174.023 224.375 168.5C224.375 162.977 228.852 158.5 234.375 158.5C239.898 158.5 244.375 162.977 244.375 168.5Z" stroke="white" stroke-width="5"/>
</svg>
