<svg width="300" height="300" viewBox="0 0 300 300" fill="none" xmlns="http://www.w3.org/2000/svg">
<path fill-rule="evenodd" clip-rule="evenodd" d="M161.858 0.475698C203.131 3.75692 239.184 23.4619 264.097 52.6706C289.017 81.897 302.798 120.61 299.523 161.865C296.248 203.138 276.537 239.191 247.334 264.099C218.26 288.895 179.799 302.653 138.79 299.577L137.424 299.466C96.4502 296.026 60.6673 276.374 35.8999 247.341C11.109 218.267 -2.65454 179.812 0.427468 138.803L0.532936 137.438C3.97822 96.4633 23.6246 60.6745 52.6634 35.9071C81.8898 10.9815 120.602 -2.79381 161.858 0.475698ZM142.909 195.621C144.128 195.298 145.528 194.918 146.993 194.713C155.126 193.564 156.918 185.918 151.463 179.162C158.934 169.939 153.35 165.803 145.042 160.107C139.762 156.469 141.35 153.006 146.073 150.978C156.086 147.662 159.573 144.07 159.532 138.885C159.415 124.764 134.495 114.188 128.923 99.0414C128.46 97.8051 128.085 96.5101 127.798 95.1449C126.819 90.5043 127.206 87.8911 127.798 84.938C128.712 80.4204 124.874 73.8052 129.169 72.0767C148.891 64.108 145.727 38.6903 137.178 27.3642C144.555 26.6025 152.108 26.497 159.772 27.1064C193.715 29.8017 223.363 46.0027 243.836 70.0084C264.285 93.9848 275.588 125.819 272.892 159.779C270.197 193.716 254.002 223.365 229.996 243.837C226.844 246.527 223.551 249.058 220.135 251.419L231.098 230.343L235.574 205.107C237.877 192.134 228.027 185.543 219.631 196.089C225.596 180.135 212.617 174.779 204.678 183.181C210.49 167.918 196.311 162.978 189.233 172.506L192.836 139.441C196.211 124.424 180.743 123.41 178.563 133.236L163.586 210.861C160.956 230.73 162.297 239.15 164.436 259.042L161.243 272.788C154.243 273.421 147.202 273.458 140.196 272.899C120.432 271.323 102.122 265.177 86.2432 255.573C86.7647 248.22 87.5382 239.05 91.0596 235.118C101.226 223.763 134.208 240.427 141.585 220.804C143.641 215.32 141.737 208.248 140.706 202.711C140.085 199.377 140.02 197.004 142.909 195.621Z" fill="white"/>
</svg>
