<svg width="382" height="400" viewBox="0 0 382 400" fill="none" xmlns="http://www.w3.org/2000/svg">
<path d="M186.852 139.779C191.382 125.77 205.01 118.138 218.982 120.238C242.876 123.828 243.731 150.54 230.623 164.407C215.276 180.643 183.526 181.335 188.401 137.745" stroke="white" stroke-opacity="0.9" stroke-width="8" stroke-linecap="round" stroke-linejoin="round"/>
<path d="M130.681 111.669C130.549 147.218 158.281 168.119 182.972 187.112" stroke="white" stroke-opacity="0.9" stroke-width="8" stroke-linecap="round" stroke-linejoin="round"/>
<path d="M185.763 189.904C193.262 255.173 187.761 320.73 187.761 385.896" stroke="white" stroke-opacity="0.9" stroke-width="8" stroke-linecap="round" stroke-linejoin="round"/>
<path d="M234.105 189.53C224.12 253.946 224.599 321.573 232.909 386.001" stroke="white" stroke-opacity="0.9" stroke-width="8" stroke-linecap="round" stroke-linejoin="round"/>
<path d="M234.104 189.53C247.933 220.781 254 254.383 254 289.009" stroke="white" stroke-opacity="0.9" stroke-width="8" stroke-linecap="round" stroke-linejoin="round"/>
<path d="M142.26 50.1987C132.382 66.2572 125.948 84.0291 123.899 102.488" stroke="white" stroke-opacity="0.9" stroke-width="8" stroke-linecap="round" stroke-linejoin="round"/>
<path d="M147.04 49.7971C159.023 52.8934 170.062 59.8918 178.175 69.3572" stroke="white" stroke-opacity="0.9" stroke-width="8" stroke-linecap="round" stroke-linejoin="round"/>
<path d="M181.381 68.1589C171.483 87.4729 157.911 105.521 137.073 112.467" stroke="white" stroke-opacity="0.9" stroke-width="8" stroke-linecap="round" stroke-linejoin="round"/>
<path d="M128.29 111.269C126.34 117.444 122.92 122.761 119.508 128.036" stroke="white" stroke-opacity="0.9" stroke-width="8" stroke-linecap="round" stroke-linejoin="round"/>
<path d="M109.93 125.638C115.655 127.864 120.965 131.115 126.695 133.621" stroke="white" stroke-opacity="0.9" stroke-width="8" stroke-linecap="round" stroke-linejoin="round"/>
<path d="M125.083 86.5208C118.9 72.0117 111.146 33.7719 137.856 49.798" stroke="white" stroke-opacity="0.9" stroke-width="8" stroke-linecap="round" stroke-linejoin="round"/>
<path d="M182.172 74.9458C203.319 88.8754 173.557 104.083 158.62 104.083" stroke="white" stroke-opacity="0.9" stroke-width="8" stroke-linecap="round" stroke-linejoin="round"/>
<path d="M197.33 13.8738C198.778 23.4362 189.288 26.3958 185.356 28.6441" stroke="white" stroke-opacity="0.5" stroke-width="8" stroke-linecap="round" stroke-linejoin="round"/>
<path d="M196.945 13.4753C196.652 24.7364 203.319 23.1968 205.727 24.2513" stroke="white" stroke-opacity="0.5" stroke-width="8" stroke-linecap="round" stroke-linejoin="round"/>
<path d="M188.56 27.8445C197.314 25.9295 196.869 30.9682 198.14 39.021" stroke="white" stroke-opacity="0.5" stroke-width="8" stroke-linecap="round" stroke-linejoin="round"/>
<path d="M203.328 25.4497C199.088 28.4241 199.051 33.893 198.141 38.2228" stroke="white" stroke-opacity="0.5" stroke-width="8" stroke-linecap="round" stroke-linejoin="round"/>
</svg>
