<svg width="50" height="44" viewBox="0 0 50 44" fill="none" xmlns="http://www.w3.org/2000/svg">
<path d="M3.875 29.6875V28.9375H3.125C1.81333 28.9375 0.75 27.8742 0.75 26.5625V16.7248C0.75 15.6726 1.60084 14.8163 2.66344 14.8125H3.35374C3.6058 14.9472 4.09815 15.1975 4.71108 15.4453C5.55931 15.7881 6.71733 16.1591 7.8125 16.1591C8.9057 16.1591 10.0823 15.7891 10.948 15.4476C11.5813 15.1977 12.0915 14.9453 12.3475 14.8125H13.0429C14.0605 14.8162 14.875 15.6359 14.875 16.6435V26.5625C14.875 27.8742 13.8117 28.9375 12.5 28.9375H11.75V29.6875V41.4062C11.75 42.2865 11.0365 43 10.1562 43H5.46875C4.58853 43 3.875 42.2865 3.875 41.4062V29.6875ZM21.0625 29.6875V28.9375H20.3125C19.0008 28.9375 17.9375 27.8742 17.9375 26.5625V16.7248C17.9375 15.6726 18.7883 14.8163 19.8509 14.8125H20.5412C20.7933 14.9472 21.2857 15.1975 21.8986 15.4453C22.7469 15.7881 23.9049 16.1591 25 16.1591C26.0932 16.1591 27.2698 15.7891 28.1354 15.4476C28.7687 15.1977 29.279 14.9453 29.535 14.8125H30.2304C31.248 14.8162 32.0625 15.6359 32.0625 16.6435V26.5625C32.0625 27.8742 30.9992 28.9375 29.6875 28.9375H28.9375V29.6875V41.4062C28.9375 42.2865 28.224 43 27.3438 43H22.6562C21.776 43 21.0625 42.2865 21.0625 41.4062V29.6875ZM37.7287 14.8125C37.7956 14.8482 37.8795 14.8922 37.9784 14.9422C38.2418 15.0754 38.6134 15.2527 39.0493 15.4303C39.9017 15.7777 41.0772 16.1591 42.1875 16.1591C43.2957 16.1591 44.4904 15.7788 45.3606 15.4327C45.8057 15.2556 46.1868 15.0789 46.4573 14.9462C46.5631 14.8942 46.6525 14.8488 46.7225 14.8125H47.419C48.4303 14.8125 49.25 15.6322 49.25 16.6435V26.5625C49.25 27.8742 48.1867 28.9375 46.875 28.9375H46.125V29.6875V41.4062C46.125 42.2817 45.418 42.9955 44.5299 43H39.8438C38.9635 43 38.25 42.2865 38.25 41.4062V29.6875V28.9375H37.5C36.1883 28.9375 35.125 27.8742 35.125 26.5625V16.7248C35.125 15.6687 35.9812 14.8125 37.0373 14.8125H37.7287ZM13.3125 6.25C13.3125 9.28754 10.85 11.75 7.8125 11.75C4.77496 11.75 2.3125 9.28754 2.3125 6.25C2.3125 3.21246 4.77496 0.75 7.8125 0.75C10.85 0.75 13.3125 3.21246 13.3125 6.25ZM30.5 6.25C30.5 9.28754 28.0375 11.75 25 11.75C21.9625 11.75 19.5 9.28754 19.5 6.25C19.5 3.21246 21.9625 0.75 25 0.75C28.0375 0.75 30.5 3.21246 30.5 6.25ZM47.6875 6.25C47.6875 9.28754 45.225 11.75 42.1875 11.75C39.15 11.75 36.6875 9.28754 36.6875 6.25C36.6875 3.21246 39.15 0.75 42.1875 0.75C45.225 0.75 47.6875 3.21246 47.6875 6.25Z" stroke="white" stroke-width="1.5"/>
</svg>
