<svg width="350" height="350" viewBox="0 0 350 350" fill="none" xmlns="http://www.w3.org/2000/svg">
<g clip-path="url(#clip0_79_39)">
<path d="M158.57 201.632C156.476 198.45 153.102 196.403 149.312 196.015C145.525 195.63 141.804 196.951 139.11 199.646L117.075 221.681C112.81 225.946 112.165 232.667 115.54 237.663L175.234 326.058C177.349 329.191 180.721 331.195 184.483 331.556C184.891 331.595 185.298 331.614 185.702 331.614C189.034 331.614 192.227 330.302 194.611 327.918L215.721 306.808C219.931 302.597 220.613 295.929 217.339 290.952L158.57 201.632ZM208.926 300.015L187.816 321.125C186.943 321.998 185.927 322.043 185.4 321.993C184.873 321.942 183.885 321.704 183.195 320.682L123.502 232.285C122.697 231.094 122.851 229.492 123.867 228.475L145.903 206.439C146.632 205.71 147.459 205.557 148.023 205.557C148.139 205.557 148.245 205.564 148.336 205.573C148.867 205.627 149.86 205.873 150.543 206.912H150.544L209.312 296.232C210.093 297.42 209.93 299.01 208.926 300.015Z" fill="white"/>
<path d="M298.405 38.6349L290.551 30.7802C291.734 28.9222 291.519 26.4294 289.896 24.8072L266.496 1.40716C265.595 0.506254 264.373 0 263.099 0C261.825 0 260.603 0.506254 259.702 1.40716L252.881 8.22865C252.677 7.88277 252.434 7.55389 252.136 7.25679C250.26 5.38033 247.218 5.38033 245.343 7.25679L236.302 16.2977C234.426 18.1734 234.426 21.2153 236.302 23.0911C236.599 23.3882 236.927 23.6328 237.273 23.8353L68.4485 192.659L65.4634 189.674C63.5884 187.799 60.5465 187.799 58.67 189.674C56.7943 191.55 56.7943 194.592 58.6708 196.468L61.6558 199.452L60.3809 200.727C50.9831 210.125 48.893 224.822 55.2984 236.468L56.2895 238.27C55.5881 238.754 54.9223 239.299 54.3051 239.916C51.6512 242.569 50.1901 246.096 50.1886 249.848C50.1871 253.599 51.6475 257.126 54.3 259.777C57.0382 262.516 60.6352 263.885 64.2321 263.885C67.6237 263.885 71.0049 262.652 73.6765 260.219C77.8153 261.671 82.475 261.634 86.8133 259.81C99.5043 254.476 114.377 258.84 122.173 270.19L173.013 344.208C175.266 347.489 178.832 349.579 182.795 349.943C183.208 349.981 183.619 350 184.029 350C187.555 350 190.938 348.61 193.459 346.089L230.736 308.81C235.184 304.364 235.911 297.318 232.466 292.057L196.702 237.428C192.826 231.508 193.645 223.581 198.649 218.577L227.611 189.614C236.298 180.928 237.291 166.965 229.92 157.135L224.991 150.564C218.8 142.309 219.633 130.582 226.929 123.286L252.135 98.0794C253.037 97.1785 253.542 95.9568 253.542 94.6827C253.542 93.5069 253.106 92.3783 252.331 91.5025L298.404 45.429C300.281 43.5526 300.281 40.5114 298.405 38.6349ZM263.099 11.5973L279.705 28.2039L116.313 191.596L99.7061 174.989L136.528 138.167L143.237 144.876C144.174 145.814 145.404 146.283 146.633 146.283C147.862 146.283 149.092 145.814 150.03 144.876L187.785 107.121C188.686 106.22 189.192 104.998 189.192 103.724C189.192 102.45 188.686 101.229 187.785 100.328L181.077 93.6199L263.099 11.5973ZM68.1004 239.81L63.7163 231.839C60.1503 225.355 60.4593 217.484 64.1915 211.332L80.385 227.525L68.1004 239.81ZM87.1776 220.732L70.5703 204.125L73.4888 201.207L90.0954 217.814L87.1776 220.732ZM96.8896 211.02L80.283 194.412L83.2008 191.495L99.8081 208.101L96.8896 211.02ZM106.601 201.308L89.9942 184.701L92.9127 181.783L109.52 198.389L106.601 201.308ZM177.594 103.724L146.633 134.685L143.322 131.374L174.284 100.413L177.594 103.724ZM61.0926 252.983C60.256 252.147 59.7949 251.034 59.7956 249.85C59.7956 248.716 60.2228 247.65 60.9936 246.824L63.7119 251.766C64.1775 252.613 64.7133 253.396 65.2868 254.138C63.8286 254.495 62.2286 254.12 61.0926 252.983ZM186.02 199.097C181.302 195.578 178.352 190.193 177.927 184.323C177.575 179.458 178.991 174.677 181.853 170.811C182.207 177.971 185.106 185.011 190.51 190.416C191.545 191.451 192.654 192.411 193.797 193.262C197.348 195.924 201.439 197.475 205.624 197.986C200.278 203.027 191.938 203.536 186.02 199.097ZM222.233 162.901C226.785 168.968 226.181 177.458 220.818 182.822L219.48 184.16C214.153 189.487 205.591 190.094 199.548 185.566C198.766 184.984 198.012 184.329 197.304 183.623C190.053 176.371 189.445 164.78 195.741 156.809C196.036 156.435 196.378 156.095 196.757 155.807C202.964 151.076 211.68 151.362 217.607 156.733L222.233 162.901ZM220.135 116.492C212.946 123.682 210.06 133.816 211.717 143.352C203.496 141.698 194.673 144.083 188.267 150.489L177.012 161.743C170.876 167.879 167.717 176.362 168.344 185.017C168.97 193.671 173.318 201.611 180.264 206.792C183.822 209.46 187.923 211.013 192.118 211.522L191.854 211.785C183.651 219.988 182.31 232.987 188.663 242.692L224.428 297.321C225.394 298.796 225.19 300.771 223.944 302.018L186.666 339.296C185.585 340.376 184.327 340.437 183.675 340.377C183.022 340.317 181.797 340.028 180.932 338.769L130.092 264.751C122.698 253.986 110.518 247.948 98.0151 247.948C92.9962 247.948 87.9241 248.922 83.0914 250.953C79.4907 252.466 75.4237 251.388 73.0313 248.468L234.381 87.1177L241.946 94.6834L220.135 116.492ZM245.548 84.6981L241.173 80.3236L283.84 37.6571L288.214 42.0316L245.548 84.6981Z" fill="white"/>
<path d="M166.55 278.674C170.446 278.674 174.107 277.157 176.86 274.403C179.615 271.648 181.131 267.987 181.131 264.092C181.131 260.197 179.614 256.535 176.861 253.781C176.861 253.781 176.861 253.781 176.86 253.781C174.106 251.028 170.444 249.51 166.55 249.51C162.654 249.51 158.993 251.027 156.239 253.781C150.555 259.466 150.555 268.717 156.239 274.403C158.994 277.157 162.655 278.674 166.55 278.674ZM163.032 260.576C163.971 259.636 165.221 259.119 166.55 259.119C167.879 259.119 169.127 259.636 170.066 260.576C171.006 261.515 171.524 262.764 171.524 264.093C171.524 265.421 171.006 266.67 170.066 267.61C169.127 268.549 167.879 269.067 166.55 269.067C165.221 269.067 163.972 268.549 163.033 267.61C161.094 265.67 161.094 262.514 163.032 260.576Z" fill="white"/>
</g>
<defs>
<clipPath id="clip0_79_39">
<rect width="350" height="350" fill="white"/>
</clipPath>
</defs>
</svg>
